<svg width="20" height="15" viewBox="0 0 20 15" fill="none" xmlns="http://www.w3.org/2000/svg">
<g filter="url(#filter0_d_303_4)">
<path d="M6.66663 4.16667C6.66663 4.38768 6.75442 4.59964 6.9107 4.75592C7.06698 4.9122 7.27895 5 7.49996 5H12.5C12.721 5 12.9329 4.9122 13.0892 4.75592C13.2455 4.59964 13.3333 4.38768 13.3333 4.16667C13.3333 3.94565 13.2455 3.73369 13.0892 3.57741C12.9329 3.42113 12.721 3.33333 12.5 3.33333H7.49996C7.27895 3.33333 7.06698 3.42113 6.9107 3.57741C6.75442 3.73369 6.66663 3.94565 6.66663 4.16667ZM8.33329 6.66667H5.83329C5.17025 6.66667 4.53437 6.40327 4.06553 5.93443C3.59668 5.46559 3.33329 4.82971 3.33329 4.16667C3.33329 3.50363 3.59668 2.86774 4.06553 2.3989C4.53437 1.93006 5.17025 1.66667 5.83329 1.66667H8.33329C8.55431 1.66667 8.76627 1.57887 8.92255 1.42259C9.07883 1.26631 9.16663 1.05435 9.16663 0.833333C9.16663 0.61232 9.07883 0.400358 8.92255 0.244078C8.76627 0.0877975 8.55431 0 8.33329 0H5.83329C4.72822 0 3.66842 0.438987 2.88701 1.22039C2.10561 2.00179 1.66663 3.0616 1.66663 4.16667C1.66663 5.27174 2.10561 6.33154 2.88701 7.11294C3.66842 7.89435 4.72822 8.33333 5.83329 8.33333H8.33329C8.55431 8.33333 8.76627 8.24554 8.92255 8.08926C9.07883 7.93298 9.16663 7.72101 9.16663 7.5C9.16663 7.27899 9.07883 7.06702 8.92255 6.91074C8.76627 6.75446 8.55431 6.66667 8.33329 6.66667ZM14.1666 0H11.6666C11.4456 0 11.2337 0.0877975 11.0774 0.244078C10.9211 0.400358 10.8333 0.61232 10.8333 0.833333C10.8333 1.05435 10.9211 1.26631 11.0774 1.42259C11.2337 1.57887 11.4456 1.66667 11.6666 1.66667H14.1666C14.8297 1.66667 15.4656 1.93006 15.9344 2.3989C16.4032 2.86774 16.6666 3.50363 16.6666 4.16667C16.6666 4.82971 16.4032 5.46559 15.9344 5.93443C15.4656 6.40327 14.8297 6.66667 14.1666 6.66667H11.6666C11.4456 6.66667 11.2337 6.75446 11.0774 6.91074C10.9211 7.06702 10.8333 7.27899 10.8333 7.5C10.8333 7.72101 10.9211 7.93298 11.0774 8.08926C11.2337 8.24554 11.4456 8.33333 11.6666 8.33333H14.1666C15.2717 8.33333 16.3315 7.89435 17.1129 7.11294C17.8943 6.33154 18.3333 5.27174 18.3333 4.16667C18.3333 3.0616 17.8943 2.00179 17.1129 1.22039C16.3315 0.438987 15.2717 0 14.1666 0V0Z" fill="#3D3D3D"/>
</g>
<defs>
<filter id="filter0_d_303_4" x="-2.33337" y="0" width="24.6666" height="16.3333" filterUnits="userSpaceOnUse" color-interpolation-filters="sRGB">
<feFlood flood-opacity="0" result="BackgroundImageFix"/>
<feColorMatrix in="SourceAlpha" type="matrix" values="0 0 0 0 0 0 0 0 0 0 0 0 0 0 0 0 0 0 127 0" result="hardAlpha"/>
<feOffset dy="4"/>
<feGaussianBlur stdDeviation="2"/>
<feComposite in2="hardAlpha" operator="out"/>
<feColorMatrix type="matrix" values="0 0 0 0 0 0 0 0 0 0 0 0 0 0 0 0 0 0 0.25 0"/>
<feBlend mode="normal" in2="BackgroundImageFix" result="effect1_dropShadow_303_4"/>
<feBlend mode="normal" in="SourceGraphic" in2="effect1_dropShadow_303_4" result="shape"/>
</filter>
</defs>
</svg>
